<svg width="14" height="13" viewBox="0 0 14 13" fill="none" xmlns="http://www.w3.org/2000/svg">
<path d="M13.9097 9.38972V11.2777C13.9105 11.453 13.8706 11.6265 13.7926 11.7871C13.7145 11.9477 13.6001 12.0918 13.4566 12.2103C13.313 12.3288 13.1436 12.419 12.9591 12.4752C12.7745 12.5313 12.579 12.5522 12.385 12.5364C10.2329 12.326 8.16556 11.6642 6.34922 10.6043C4.65936 9.6381 3.22664 8.34892 2.15283 6.82834C0.970832 5.18653 0.23525 3.31728 0.00567682 1.37201C-0.0118008 1.19798 0.0111845 1.02258 0.0731691 0.856978C0.135154 0.691377 0.234779 0.539205 0.365704 0.410148C0.496628 0.281092 0.655981 0.17798 0.833619 0.107376C1.01126 0.0367729 1.20329 0.000225573 1.39748 6.10154e-05H3.49568C3.8351 -0.00294496 4.16416 0.105209 4.42151 0.304365C4.67887 0.50352 4.84697 0.780087 4.89447 1.08252C4.98303 1.68672 5.14727 2.27997 5.38405 2.85094C5.47815 3.0762 5.49852 3.321 5.44274 3.55635C5.38696 3.7917 5.25737 4.00773 5.06932 4.17884L4.18109 4.97809C5.17672 6.55366 6.6265 7.85821 8.37748 8.7541L9.26572 7.95484C9.45588 7.78564 9.69596 7.66903 9.95751 7.61884C10.2191 7.56865 10.4911 7.58697 10.7414 7.67164C11.376 7.8847 12.0353 8.03249 12.7068 8.11218C13.0465 8.1553 13.3568 8.30929 13.5786 8.54484C13.8004 8.78039 13.9182 9.08108 13.9097 9.38972Z" fill="black"/>
</svg>
