<svg width="14" height="15" viewBox="0 0 14 15" fill="none" xmlns="http://www.w3.org/2000/svg">
<g clip-path="url(#clip0_2186_1495)">
<path d="M0.758654 2.97623C0.618633 3.06204 0.502283 3.18641 0.421493 3.33647C0.340731 3.48662 0.2984 3.65716 0.298833 3.83064V12.9186C0.298318 13.0879 0.338564 13.2545 0.415616 13.4021C0.492696 13.5496 0.603954 13.6732 0.738558 13.7607C0.873162 13.8482 1.02654 13.8967 1.1837 13.9013C1.34086 13.906 1.49646 13.8667 1.63534 13.7874C1.64758 13.7803 1.65953 13.773 1.67117 13.7647L4.06382 12.0789C4.09562 12.0566 4.12167 12.026 4.13974 11.9901C4.15775 11.9542 4.16712 11.9139 4.16706 11.8731V0.9278C4.16715 0.883175 4.15596 0.839366 4.13467 0.8011C4.11333 0.762804 4.0827 0.731537 4.04608 0.710654C4.00947 0.689741 3.96825 0.680029 3.92689 0.682508C3.88551 0.684987 3.84553 0.6996 3.81132 0.724771L0.758654 2.97623Z" fill="#4B4B4B"/>
<path d="M5.42766 0.709032C5.39335 0.684998 5.35367 0.671407 5.3128 0.669627C5.27193 0.667877 5.23133 0.677998 5.19537 0.698969C5.1594 0.71994 5.12934 0.750973 5.10835 0.788803C5.08739 0.826632 5.07625 0.869828 5.07617 0.913898V11.8638C5.07606 11.9046 5.08546 11.9449 5.1035 11.9808C5.12154 12.0167 5.14762 12.0473 5.17939 12.0696L7.90928 13.9811C7.94362 14.0052 7.98333 14.0189 8.02428 14.0207C8.06523 14.0224 8.10588 14.0123 8.14193 13.9913C8.17795 13.9703 8.20801 13.9391 8.229 13.9013C8.24996 13.8633 8.26106 13.8201 8.26106 13.7759V2.83306C8.26117 2.79217 8.25175 2.75184 8.23366 2.71584C8.21559 2.67985 8.1894 2.64931 8.15753 2.62697L5.42766 0.709032Z" fill="#4B4B4B"/>
<path d="M12.5993 0.928122C12.4652 0.839747 12.3119 0.790747 12.1548 0.786022C11.9976 0.781297 11.8421 0.820993 11.7036 0.901201C11.6913 0.907968 11.6794 0.915522 11.668 0.923835L9.27512 2.60815C9.24335 2.63046 9.21724 2.66097 9.1992 2.69693C9.18119 2.73287 9.17179 2.77309 9.17188 2.81392V13.7608C9.17174 13.8054 9.18293 13.8493 9.20427 13.8876C9.22561 13.9259 9.25627 13.9573 9.29291 13.9782C9.32956 13.9991 9.37086 14.0088 9.41227 14.0063C9.45371 14.0037 9.49368 13.9891 9.52789 13.9638L12.5726 11.7142C12.7143 11.629 12.8323 11.5046 12.9144 11.3539C12.9964 11.2031 13.0395 11.0315 13.0392 10.8567V1.79204C13.0411 1.61946 13.0016 1.44927 12.9245 1.29793C12.8475 1.14658 12.7354 1.01921 12.5993 0.928122Z" fill="#4B4B4B"/>
</g>
<defs>
<clipPath id="clip0_2186_1495">
<rect width="13" height="14" fill="white" transform="translate(0.168945 0.345215)"/>
</clipPath>
</defs>
</svg>
