<svg width="13" height="13" viewBox="0 0 13 13" fill="none" xmlns="http://www.w3.org/2000/svg">
<path d="M12.6754 9.33292V11.1415C12.6761 11.3094 12.6416 11.4755 12.5742 11.6294C12.5068 11.7832 12.408 11.9213 12.284 12.0348C12.1601 12.1483 12.0137 12.2347 11.8544 12.2885C11.695 12.3423 11.5261 12.3623 11.3586 12.3472C9.49985 12.1456 7.71439 11.5117 6.14569 10.4964C4.68622 9.57084 3.44884 8.33591 2.52143 6.87933C1.50058 5.30663 0.865285 3.51604 0.667012 1.65264C0.651917 1.48594 0.671769 1.31792 0.725303 1.15929C0.778836 1.00066 0.864879 0.85489 0.977954 0.731265C1.09103 0.607641 1.22866 0.508868 1.38207 0.441236C1.53549 0.373604 1.70134 0.338595 1.86906 0.338437H3.68119C3.97434 0.335558 4.25853 0.43916 4.4808 0.629934C4.70307 0.820707 4.84825 1.08563 4.88928 1.37533C4.96577 1.95411 5.10761 2.52239 5.31211 3.06934C5.39338 3.28511 5.41097 3.51961 5.36279 3.74506C5.31462 3.9705 5.2027 4.17744 5.04029 4.34134L4.27316 5.10696C5.13305 6.61622 6.38517 7.86586 7.89742 8.72404L8.66456 7.95843C8.82879 7.79634 9.03614 7.68464 9.26203 7.63656C9.48792 7.58848 9.72289 7.60604 9.93909 7.68715C10.4871 7.89124 11.0565 8.03281 11.6365 8.10914C11.9299 8.15045 12.1979 8.29796 12.3894 8.52359C12.581 8.74923 12.6828 9.03727 12.6754 9.33292Z" fill="#4B4B4B"/>
</svg>
