<svg width="18" height="19" viewBox="0 0 18 19" fill="none" xmlns="http://www.w3.org/2000/svg">
<path d="M13.945 6.17716C15.3747 6.17716 16.5336 5.01822 16.5336 3.58858C16.5336 2.15895 15.3747 1 13.945 1C12.5154 1 11.3564 2.15895 11.3564 3.58858C11.3564 5.01822 12.5154 6.17716 13.945 6.17716Z" stroke="#121212" stroke-width="1.5" stroke-linecap="round" stroke-linejoin="round"/>
<path d="M3.58858 12.2172C5.01822 12.2172 6.17716 11.0583 6.17716 9.62862C6.17716 8.19899 5.01822 7.04004 3.58858 7.04004C2.15895 7.04004 1 8.19899 1 9.62862C1 11.0583 2.15895 12.2172 3.58858 12.2172Z" stroke="#121212" stroke-width="1.5" stroke-linecap="round" stroke-linejoin="round"/>
<path d="M13.945 18.2572C15.3747 18.2572 16.5336 17.0983 16.5336 15.6687C16.5336 14.239 15.3747 13.0801 13.945 13.0801C12.5154 13.0801 11.3564 14.239 11.3564 15.6687C11.3564 17.0983 12.5154 18.2572 13.945 18.2572Z" stroke="#121212" stroke-width="1.5" stroke-linecap="round" stroke-linejoin="round"/>
<path d="M5.8252 10.5L11.7185 13.9342" stroke="#121212" stroke-width="1.5" stroke-linecap="round" stroke-linejoin="round"/>
<path d="M11.7089 4.8916L5.82422 8.32579" stroke="#121212" stroke-width="1.5" stroke-linecap="round" stroke-linejoin="round"/>
</svg>
