<svg width="36" height="31" viewBox="0 0 36 31" fill="none" xmlns="http://www.w3.org/2000/svg">
<mask id="path-1-inside-1_2477_842" fill="white">
<path d="M35.5549 9.94655L33.7174 2.66322C33.3324 1.16322 31.9674 0.129883 30.3749 0.129883H6.06737C4.49237 0.129883 3.10987 1.17988 2.74237 2.66322L0.90487 9.94655C0.48487 11.6466 0.86987 13.3799 1.98987 14.7465C2.12987 14.9299 2.32237 15.0632 2.47987 15.2299V26.7965C2.47987 28.6299 4.05487 30.1299 5.97987 30.1299H30.4799C32.4049 30.1299 33.9799 28.6299 33.9799 26.7965V15.2299C34.1374 15.0799 34.3299 14.9299 34.4699 14.7632C35.5899 13.3965 35.9924 11.6466 35.5549 9.94655ZM30.3224 3.44655L32.1599 10.7299C32.3349 11.4299 32.1774 12.1299 31.7224 12.6799C31.4774 12.9799 30.9524 13.4632 30.0774 13.4632C29.0099 13.4632 28.0824 12.6465 27.9599 11.5632L26.9449 3.46322L30.3224 3.44655ZM19.9799 3.46322H23.4099L24.3549 10.9965C24.4424 11.6466 24.2324 12.2965 23.7774 12.7799C23.3924 13.2132 22.8324 13.4632 22.1149 13.4632C20.9424 13.4632 19.9799 12.4799 19.9799 11.2799V3.46322ZM12.0874 10.9965L13.0499 3.46322H16.4799V11.2799C16.4799 12.4799 15.5174 13.4632 14.2224 13.4632C13.6274 13.4632 13.0849 13.2132 12.6649 12.7799C12.2274 12.2965 12.0174 11.6466 12.0874 10.9965ZM4.29987 10.7299L6.06737 3.46322H9.51487L8.49987 11.5632C8.35987 12.6465 7.44987 13.4632 6.38237 13.4632C5.52487 13.4632 4.98237 12.9799 4.75487 12.6799C4.28237 12.1465 4.12487 11.4299 4.29987 10.7299ZM5.97987 26.7965V16.7465C6.11987 16.7632 6.24237 16.7965 6.38237 16.7965C7.90487 16.7965 9.28737 16.1965 10.3024 15.2132C11.3524 16.2132 12.7524 16.7965 14.3449 16.7965C15.8674 16.7965 17.2324 16.1965 18.2474 15.2465C19.2799 16.1965 20.6799 16.7965 22.2549 16.7965C23.7249 16.7965 25.1249 16.2132 26.1749 15.2132C27.1899 16.1965 28.5724 16.7965 30.0949 16.7965C30.2349 16.7965 30.3574 16.7632 30.4974 16.7465V26.7965H5.97987Z"/>
</mask>
<path d="M35.5549 9.94655L33.7174 2.66322C33.3324 1.16322 31.9674 0.129883 30.3749 0.129883H6.06737C4.49237 0.129883 3.10987 1.17988 2.74237 2.66322L0.90487 9.94655C0.48487 11.6466 0.86987 13.3799 1.98987 14.7465C2.12987 14.9299 2.32237 15.0632 2.47987 15.2299V26.7965C2.47987 28.6299 4.05487 30.1299 5.97987 30.1299H30.4799C32.4049 30.1299 33.9799 28.6299 33.9799 26.7965V15.2299C34.1374 15.0799 34.3299 14.9299 34.4699 14.7632C35.5899 13.3965 35.9924 11.6466 35.5549 9.94655ZM30.3224 3.44655L32.1599 10.7299C32.3349 11.4299 32.1774 12.1299 31.7224 12.6799C31.4774 12.9799 30.9524 13.4632 30.0774 13.4632C29.0099 13.4632 28.0824 12.6465 27.9599 11.5632L26.9449 3.46322L30.3224 3.44655ZM19.9799 3.46322H23.4099L24.3549 10.9965C24.4424 11.6466 24.2324 12.2965 23.7774 12.7799C23.3924 13.2132 22.8324 13.4632 22.1149 13.4632C20.9424 13.4632 19.9799 12.4799 19.9799 11.2799V3.46322ZM12.0874 10.9965L13.0499 3.46322H16.4799V11.2799C16.4799 12.4799 15.5174 13.4632 14.2224 13.4632C13.6274 13.4632 13.0849 13.2132 12.6649 12.7799C12.2274 12.2965 12.0174 11.6466 12.0874 10.9965ZM4.29987 10.7299L6.06737 3.46322H9.51487L8.49987 11.5632C8.35987 12.6465 7.44987 13.4632 6.38237 13.4632C5.52487 13.4632 4.98237 12.9799 4.75487 12.6799C4.28237 12.1465 4.12487 11.4299 4.29987 10.7299ZM5.97987 26.7965V16.7465C6.11987 16.7632 6.24237 16.7965 6.38237 16.7965C7.90487 16.7965 9.28737 16.1965 10.3024 15.2132C11.3524 16.2132 12.7524 16.7965 14.3449 16.7965C15.8674 16.7965 17.2324 16.1965 18.2474 15.2465C19.2799 16.1965 20.6799 16.7965 22.2549 16.7965C23.7249 16.7965 25.1249 16.2132 26.1749 15.2132C27.1899 16.1965 28.5724 16.7965 30.0949 16.7965C30.2349 16.7965 30.3574 16.7632 30.4974 16.7465V26.7965H5.97987Z" fill="#EF776A"/>
<path d="M35.5549 9.94655L31.6764 10.925L31.6787 10.9343L31.6811 10.9435L35.5549 9.94655ZM33.7174 2.66322L37.5958 1.68472L37.5938 1.67675L37.5918 1.66878L33.7174 2.66322ZM6.06737 0.129883V4.12988V0.129883ZM2.74237 2.66322L6.62084 3.64171L6.62293 3.63343L6.62498 3.62514L2.74237 2.66322ZM0.90487 9.94655L-2.9736 8.96806L-2.97601 8.9776L-2.97837 8.98716L0.90487 9.94655ZM1.98987 14.7465L5.16894 12.3189L5.12724 12.2643L5.08368 12.2111L1.98987 14.7465ZM2.47987 15.2299H6.47987V13.6389L5.38712 12.4825L2.47987 15.2299ZM33.9799 15.2299L31.2213 12.3333L29.9799 13.5156V15.2299H33.9799ZM34.4699 14.7632L37.5327 17.336L37.5483 17.3174L37.5637 17.2986L34.4699 14.7632ZM30.3224 3.44655L34.2008 2.46806L33.4347 -0.568858L30.3026 -0.553402L30.3224 3.44655ZM32.1599 10.7299L36.0404 9.75974L36.0383 9.75139L32.1599 10.7299ZM31.7224 12.6799L28.6403 10.1302L28.6322 10.1399L28.6242 10.1497L31.7224 12.6799ZM27.9599 11.5632L31.9345 11.1138L31.9318 11.0898L31.9288 11.0659L27.9599 11.5632ZM26.9449 3.46322L26.9251 -0.536735L22.4151 -0.51448L22.9759 3.96056L26.9449 3.46322ZM19.9799 3.46322V-0.536784H15.9799V3.46322H19.9799ZM23.4099 3.46322L27.3788 2.96535L26.9394 -0.536784H23.4099V3.46322ZM24.3549 10.9965L20.386 11.4944L20.3882 11.5123L20.3906 11.5302L24.3549 10.9965ZM23.7774 12.7799L20.8649 10.0381L20.8254 10.0801L20.7871 10.1231L23.7774 12.7799ZM12.0874 10.9965L8.11962 10.4896L8.1146 10.5289L8.11036 10.5683L12.0874 10.9965ZM13.0499 3.46322V-0.536784H9.52842L9.08212 2.95627L13.0499 3.46322ZM16.4799 3.46322H20.4799V-0.536784H16.4799V3.46322ZM12.6649 12.7799L9.69933 15.4642L9.74512 15.5148L9.7926 15.5638L12.6649 12.7799ZM4.29987 10.7299L8.18044 11.7L8.18353 11.6876L8.18655 11.6753L4.29987 10.7299ZM6.06737 3.46322V-0.536784H2.92368L2.18069 2.51784L6.06737 3.46322ZM9.51487 3.46322L13.4838 3.96056L14.0474 -0.536784H9.51487V3.46322ZM8.49987 11.5632L12.4669 12.0759L12.4679 12.0682L12.4688 12.0606L8.49987 11.5632ZM4.75487 12.6799L7.94208 10.2629L7.84997 10.1415L7.74889 10.0274L4.75487 12.6799ZM5.97987 26.7965H1.97987V30.7965H5.97987V26.7965ZM5.97987 16.7465L6.45272 12.7746L1.97987 12.2421V16.7465H5.97987ZM10.3024 15.2132L13.061 12.3167L10.2787 9.66685L7.51911 12.3403L10.3024 15.2132ZM18.2474 15.2465L20.9558 12.303L18.2241 9.7896L15.514 12.3262L18.2474 15.2465ZM26.1749 15.2132L28.9581 12.3403L26.1986 9.66685L23.4163 12.3167L26.1749 15.2132ZM30.4974 16.7465H34.4974V12.2421L30.0245 12.7746L30.4974 16.7465ZM30.4974 26.7965V30.7965H34.4974V26.7965H30.4974ZM35.5549 9.94655L39.4333 8.96806L37.5958 1.68472L33.7174 2.66322L29.8389 3.64171L31.6764 10.925L35.5549 9.94655ZM33.7174 2.66322L37.5918 1.66878C36.7338 -1.67396 33.716 -3.87012 30.3749 -3.87012V0.129883V4.12988C30.2187 4.12988 29.9309 4.00039 29.843 3.65765L33.7174 2.66322ZM30.3749 0.129883V-3.87012H6.06737V0.129883V4.12988H30.3749V0.129883ZM6.06737 0.129883V-3.87012C2.74484 -3.87012 -0.309051 -1.65364 -1.14024 1.70129L2.74237 2.66322L6.62498 3.62514C6.5771 3.81843 6.4699 3.95073 6.3748 4.02311C6.281 4.09451 6.17277 4.12988 6.06737 4.12988V0.129883ZM2.74237 2.66322L-1.1361 1.68472L-2.9736 8.96806L0.90487 9.94655L4.78334 10.925L6.62084 3.64171L2.74237 2.66322ZM0.90487 9.94655L-2.97837 8.98716C-3.69962 11.9065 -3.02645 14.936 -1.10394 17.282L1.98987 14.7465L5.08368 12.2111C4.7662 11.8237 4.66936 11.3866 4.78811 10.9059L0.90487 9.94655ZM1.98987 14.7465L-1.1892 17.1742C-0.882708 17.5756 -0.567243 17.8595 -0.453352 17.9624C-0.422443 17.9903 -0.38931 18.0199 -0.374522 18.0331C-0.354882 18.0507 -0.347799 18.0571 -0.344501 18.0601C-0.337028 18.067 -0.373654 18.0341 -0.427376 17.9772L2.47987 15.2299L5.38712 12.4825C5.25464 12.3424 5.13489 12.2303 5.0576 12.1595C5.01852 12.1237 4.98281 12.0917 4.95958 12.071C4.93151 12.0459 4.92171 12.0371 4.90997 12.0265C4.88859 12.0072 4.91409 12.0294 4.95574 12.0717C5.00012 12.1169 5.0786 12.2006 5.16894 12.3189L1.98987 14.7465ZM2.47987 15.2299H-1.52013V26.7965H2.47987H6.47987V15.2299H2.47987ZM2.47987 26.7965H-1.52013C-1.52013 31.0207 2.03188 34.1299 5.97987 34.1299V30.1299V26.1299C6.06714 26.1299 6.1738 26.1658 6.26662 26.2542C6.36215 26.3452 6.47987 26.5347 6.47987 26.7965H2.47987ZM5.97987 30.1299V34.1299H30.4799V30.1299V26.1299H5.97987V30.1299ZM30.4799 30.1299V34.1299C34.4279 34.1299 37.9799 31.0207 37.9799 26.7965H33.9799H29.9799C29.9799 26.5347 30.0976 26.3452 30.1931 26.2542C30.2859 26.1658 30.3926 26.1299 30.4799 26.1299V30.1299ZM33.9799 26.7965H37.9799V15.2299H33.9799H29.9799V26.7965H33.9799ZM33.9799 15.2299L36.7385 18.1264C36.7284 18.136 36.7299 18.1341 36.7641 18.1037C36.7811 18.0885 36.8576 18.0209 36.9131 17.9707C37.0308 17.8644 37.2803 17.6365 37.5327 17.336L34.4699 14.7632L31.4071 12.1904C31.4701 12.1154 31.5194 12.0653 31.5404 12.0445C31.5612 12.0239 31.5692 12.0173 31.5498 12.0349C31.5407 12.043 31.5289 12.0536 31.5103 12.0702C31.4968 12.0821 31.4652 12.1101 31.4423 12.1305C31.3917 12.1756 31.3101 12.2487 31.2213 12.3333L33.9799 15.2299ZM34.4699 14.7632L37.5637 17.2986C39.4709 14.9714 40.1919 11.9154 39.4286 8.94962L35.5549 9.94655L31.6811 10.9435C31.7928 11.3777 31.7088 11.8217 31.3761 12.2278L34.4699 14.7632ZM30.3224 3.44655L26.4439 4.42504L28.2814 11.7084L32.1599 10.7299L36.0383 9.75139L34.2008 2.46806L30.3224 3.44655ZM32.1599 10.7299L28.2793 11.7C28.2205 11.465 28.2077 11.1824 28.2745 10.8848C28.3415 10.5868 28.476 10.3289 28.6403 10.1302L31.7224 12.6799L34.8044 15.2296C36.0783 13.6897 36.5206 11.6803 36.0404 9.75974L32.1599 10.7299ZM31.7224 12.6799L28.6242 10.1497C28.7124 10.0418 28.869 9.87583 29.1196 9.72951C29.3995 9.56618 29.7389 9.46322 30.0774 9.46322V13.4632V17.4632C32.6114 17.4632 34.1629 16.0153 34.8205 15.21L31.7224 12.6799ZM30.0774 13.4632V9.46322C31.0406 9.46322 31.8279 10.1703 31.9345 11.1138L27.9599 11.5632L23.9852 12.0127C24.3369 15.1228 26.9791 17.4632 30.0774 17.4632V13.4632ZM27.9599 11.5632L31.9288 11.0659L30.9138 2.96587L26.9449 3.46322L22.9759 3.96056L23.9909 12.0606L27.9599 11.5632ZM26.9449 3.46322L26.9646 7.46317L30.3421 7.4465L30.3224 3.44655L30.3026 -0.553402L26.9251 -0.536735L26.9449 3.46322ZM19.9799 3.46322V7.46322H23.4099V3.46322V-0.536784H19.9799V3.46322ZM23.4099 3.46322L19.441 3.96108L20.386 11.4944L24.3549 10.9965L28.3238 10.4987L27.3788 2.96535L23.4099 3.46322ZM24.3549 10.9965L20.3906 11.5302C20.3155 10.9723 20.503 10.4225 20.8649 10.0381L23.7774 12.7799L26.6899 15.5217C27.9617 14.1706 28.5692 12.3208 28.3191 10.4629L24.3549 10.9965ZM23.7774 12.7799L20.7871 10.1231C20.9906 9.89405 21.2465 9.71177 21.522 9.59605C21.7907 9.48322 22.0062 9.46322 22.1149 9.46322V13.4632V17.4632C23.8274 17.4632 25.5306 16.829 26.7676 15.4366L23.7774 12.7799ZM22.1149 13.4632V9.46322C23.2343 9.46322 23.9799 10.3545 23.9799 11.2799H19.9799H15.9799C15.9799 14.6053 18.6504 17.4632 22.1149 17.4632V13.4632ZM19.9799 11.2799H23.9799V3.46322H19.9799H15.9799V11.2799H19.9799ZM12.0874 10.9965L16.0551 11.5035L17.0176 3.97016L13.0499 3.46322L9.08212 2.95627L8.11962 10.4896L12.0874 10.9965ZM13.0499 3.46322V7.46322H16.4799V3.46322V-0.536784H13.0499V3.46322ZM16.4799 3.46322H12.4799V11.2799H16.4799H20.4799V3.46322H16.4799ZM16.4799 11.2799H12.4799C12.4799 10.208 13.3715 9.46322 14.2224 9.46322V13.4632V17.4632C17.6633 17.4632 20.4799 14.7517 20.4799 11.2799H16.4799ZM14.2224 13.4632V9.46322C14.8103 9.46322 15.2766 9.72719 15.5371 9.99599L12.6649 12.7799L9.7926 15.5638C10.8931 16.6992 12.4444 17.4632 14.2224 17.4632V13.4632ZM12.6649 12.7799L15.6304 10.0956C15.9632 10.4632 16.1158 10.9475 16.0644 11.4248L12.0874 10.9965L8.11036 10.5683C7.91896 12.3456 8.49152 14.1299 9.69933 15.4642L12.6649 12.7799ZM4.29987 10.7299L8.18655 11.6753L9.95405 4.40859L6.06737 3.46322L2.18069 2.51784L0.413191 9.78451L4.29987 10.7299ZM6.06737 3.46322V7.46322H9.51487V3.46322V-0.536784H6.06737V3.46322ZM9.51487 3.46322L5.54591 2.96587L4.53091 11.0659L8.49987 11.5632L12.4688 12.0606L13.4838 3.96056L9.51487 3.46322ZM8.49987 11.5632L4.53286 11.0506C4.64126 10.2118 5.36692 9.46322 6.38237 9.46322V13.4632V17.4632C9.53283 17.4632 12.0785 15.0813 12.4669 12.0759L8.49987 11.5632ZM6.38237 13.4632V9.46322C6.7382 9.46322 7.07724 9.57097 7.34885 9.72951C7.58982 9.87017 7.78054 10.0499 7.94208 10.2629L4.75487 12.6799L1.56766 15.0968C2.29274 16.053 3.89963 17.4632 6.38237 17.4632V13.4632ZM4.75487 12.6799L7.74889 10.0274C8.20736 10.5449 8.30431 11.2045 8.18044 11.7L4.29987 10.7299L0.4193 9.75974C-0.0545729 11.6552 0.35738 13.7482 1.76085 15.3324L4.75487 12.6799ZM5.97987 26.7965H9.97987V16.7465H5.97987H1.97987V26.7965H5.97987ZM5.97987 16.7465L5.50702 20.7185C5.45742 20.7126 5.42558 20.7072 5.43504 20.7087C5.44161 20.7098 5.44622 20.7106 5.46931 20.7144C5.4875 20.7175 5.51881 20.7227 5.55406 20.7283C5.69174 20.7502 5.99946 20.7965 6.38237 20.7965V16.7965V12.7965C6.50683 12.7965 6.61004 12.804 6.68396 12.8115C6.72049 12.8152 6.75012 12.819 6.77075 12.8218C6.79106 12.8246 6.80477 12.8267 6.80818 12.8273C6.81062 12.8276 6.80911 12.8274 6.79435 12.8249C6.79007 12.8242 6.77669 12.822 6.76814 12.8205C6.7575 12.8188 6.74407 12.8165 6.72923 12.8141C6.69973 12.8092 6.66003 12.8029 6.61435 12.7962C6.56827 12.7894 6.51374 12.7819 6.45272 12.7746L5.97987 16.7465ZM6.38237 16.7965V20.7965C8.97705 20.7965 11.3487 19.7689 13.0856 18.0861L10.3024 15.2132L7.51911 12.3403C7.22605 12.6242 6.83269 12.7965 6.38237 12.7965V16.7965ZM10.3024 15.2132L7.54375 18.1098C9.34431 19.8246 11.7347 20.7965 14.3449 20.7965V16.7965V12.7965C13.77 12.7965 13.3604 12.6018 13.061 12.3167L10.3024 15.2132ZM14.3449 16.7965V20.7965C16.9467 20.7965 19.2728 19.7655 20.9807 18.1669L18.2474 15.2465L15.514 12.3262C15.1919 12.6276 14.7881 12.7965 14.3449 12.7965V16.7965ZM18.2474 15.2465L15.539 18.1901C17.2821 19.794 19.6395 20.7965 22.2549 20.7965V16.7965V12.7965C21.7203 12.7965 21.2776 12.5991 20.9558 12.303L18.2474 15.2465ZM22.2549 16.7965V20.7965C24.7876 20.7965 27.1659 19.7932 28.9335 18.1098L26.1749 15.2132L23.4163 12.3167C23.0838 12.6333 22.6621 12.7965 22.2549 12.7965V16.7965ZM26.1749 15.2132L23.3916 18.0861C25.1286 19.7689 27.5002 20.7965 30.0949 20.7965V16.7965V12.7965C29.6446 12.7965 29.2512 12.6242 28.9581 12.3403L26.1749 15.2132ZM30.0949 16.7965V20.7965C30.4778 20.7965 30.7855 20.7502 30.9232 20.7283C30.9584 20.7227 30.9897 20.7175 31.0079 20.7144C31.031 20.7106 31.0356 20.7098 31.0422 20.7087C31.0517 20.7072 31.0198 20.7126 30.9702 20.7185L30.4974 16.7465L30.0245 12.7746C29.9635 12.7819 29.909 12.7894 29.8629 12.7962C29.8172 12.8029 29.7775 12.8092 29.748 12.8141C29.7332 12.8165 29.7197 12.8188 29.7091 12.8205C29.7006 12.822 29.6872 12.8242 29.6829 12.8249C29.6681 12.8274 29.6666 12.8276 29.6691 12.8273C29.6725 12.8267 29.6862 12.8246 29.7065 12.8218C29.7271 12.819 29.7568 12.8152 29.7933 12.8115C29.8672 12.804 29.9704 12.7965 30.0949 12.7965V16.7965ZM30.4974 16.7465H26.4974V26.7965H30.4974H34.4974V16.7465H30.4974ZM30.4974 26.7965V22.7965H5.97987V26.7965V30.7965H30.4974V26.7965Z" fill="#EF776A" mask="url(#path-1-inside-1_2477_842)"/>
</svg>
