<svg width="179" height="246" viewBox="0 0 179 246" fill="none" xmlns="http://www.w3.org/2000/svg">
<path d="M89.0313 5.6499C42.7138 5.6499 5.02832 41.6924 5.02832 85.9784C5.02832 107.068 14.6413 135.115 33.5993 169.341C48.8248 196.82 66.4398 221.669 75.6013 234.034C77.1498 236.146 79.1738 237.864 81.5093 239.049C83.8458 240.233 86.4278 240.85 89.0468 240.85C91.6663 240.85 94.2483 240.233 96.5848 239.049C98.9208 237.864 100.945 236.146 102.493 234.034C111.638 221.669 129.269 196.82 144.494 169.341C163.422 135.125 173.034 107.078 173.034 85.9784C173.034 41.6924 135.348 5.6499 89.0313 5.6499Z" fill="#EF776A" stroke="white" stroke-width="10"/>
<circle cx="65.0112" cy="69.4932" r="19.8521" fill="white" stroke="white"/>
<path d="M54.4665 142.243C52.7445 138.799 55.6945 104.148 57.6513 88.0356H72.9157C74.0898 104.865 76.6857 139.321 76.0468 142.243C75.2411 145.928 69.0785 148.273 65.6565 148.273C62.2344 148.273 56.6191 146.548 54.4665 142.243Z" fill="white" stroke="white"/>
<path d="M93.29 75.611V54.5756C98.0308 49.2447 102.734 52.3544 104.493 54.5756C104.408 60.2987 104.236 72.5181 104.236 75.611C105.365 76.9647 107.617 76.4095 107.988 75.611C107.988 71.969 108.26 62.7687 108.26 55.1036C112.084 49.194 117.326 52.162 118.882 55.1036V75.611C120.659 76.9538 121.799 76.6201 122.922 75.5086V54.5756C127.418 49.146 131.458 52.1885 133.404 54.5756C133.245 58.2873 133.404 70.8248 133.404 76.2279C133.404 83.8419 125.353 87.0561 120.946 89.1828L124.996 141.684C124.48 143.983 123.232 148.272 114.388 148.272C105.908 148.085 102.277 144.177 102.436 141.684L106.008 90.2348C98.1752 88.4914 94.2657 80.0353 93.29 75.611Z" fill="white" stroke="white"/>
</svg>
