<svg width="18" height="18" viewBox="0 0 18 18" fill="none" xmlns="http://www.w3.org/2000/svg">
<g clip-path="url(#clip0_852_383)">
<path d="M11.4463 8.65015H4.54004V7.58765H11.4463C11.7615 7.58765 12.0696 7.49418 12.3317 7.31905C12.5938 7.14393 12.7981 6.89502 12.9187 6.6038C13.0393 6.31258 13.0709 5.99213 13.0094 5.68297C12.9479 5.37382 12.7961 5.08984 12.5732 4.86695C12.3504 4.64406 12.0664 4.49227 11.7572 4.43077C11.4481 4.36928 11.1276 4.40084 10.8364 4.52146C10.5452 4.64209 10.2963 4.84637 10.1211 5.10846C9.94601 5.37055 9.85254 5.67868 9.85254 5.9939H8.79004C8.79004 5.46854 8.94583 4.95498 9.2377 4.51816C9.52957 4.08135 9.94442 3.74089 10.4298 3.53984C10.9152 3.3388 11.4492 3.28619 11.9645 3.38869C12.4798 3.49118 12.9531 3.74416 13.3245 4.11565C13.696 4.48713 13.949 4.96043 14.0515 5.47569C14.154 5.99095 14.1014 6.52503 13.9003 7.0104C13.6993 7.49577 13.3588 7.91062 12.922 8.20249C12.4852 8.49436 11.9716 8.65015 11.4463 8.65015Z" fill="black"/>
<path d="M12.5088 15.5564C11.8046 15.5556 11.1294 15.2755 10.6314 14.7775C10.1335 14.2795 9.85334 13.6044 9.85254 12.9001H10.915C10.915 13.2154 11.0085 13.5235 11.1836 13.7856C11.3588 14.0477 11.6077 14.252 11.8989 14.3726C12.1901 14.4932 12.5106 14.5248 12.8197 14.4633C13.1289 14.4018 13.4129 14.25 13.6357 14.0271C13.8586 13.8042 14.0104 13.5202 14.0719 13.2111C14.1334 12.9019 14.1018 12.5815 13.9812 12.2902C13.8606 11.999 13.6563 11.7501 13.3942 11.575C13.1321 11.3999 12.824 11.3064 12.5088 11.3064H2.41504V10.2439H12.5088C13.2133 10.2439 13.8889 10.5238 14.387 11.0219C14.8852 11.52 15.165 12.1957 15.165 12.9001C15.165 13.6046 14.8852 14.2803 14.387 14.7784C13.8889 15.2765 13.2133 15.5564 12.5088 15.5564Z" fill="black"/>
</g>
<defs>
<clipPath id="clip0_852_383">
<rect width="17" height="17" fill="white" transform="translate(0.290039 0.681396)"/>
</clipPath>
</defs>
</svg>
